<?xml version="1.0" encoding="iso-8859-1"?>
<!-- Uploaded to: SVG Repo, www.svgrepo.com, Generator: SVG Repo Mixer Tools -->
<!DOCTYPE svg PUBLIC "-//W3C//DTD SVG 1.1//EN" "http://www.w3.org/Graphics/SVG/1.1/DTD/svg11.dtd">
<svg fill="#000000" height="800px" width="800px" version="1.1" id="Capa_1" xmlns="http://www.w3.org/2000/svg" xmlns:xlink="http://www.w3.org/1999/xlink" 
	 viewBox="0 0 297 297" xml:space="preserve">
<g>
	<path d="M148.5,142.498c-2.07,0-3.755,1.77-3.755,3.941c0,2.176,1.685,3.943,3.755,3.943s3.755-1.768,3.755-3.943
		C152.255,144.268,150.571,142.498,148.5,142.498z"/>
	<path d="M148.499,95.823c-27.866,0-50.537,22.707-50.537,50.617c0,42.686,47.201,84.801,49.211,86.574
		c0.469,0.414,0.98,0.5,1.326,0.5c0.346,0,0.857-0.086,1.328-0.502c2.008-1.771,49.211-43.889,49.211-86.572
		C199.038,118.53,176.366,95.823,148.499,95.823z M148.5,164.43c-9.816,0-17.802-8.07-17.802-17.99
		c0-9.918,7.985-17.988,17.802-17.988c9.816,0,17.802,8.07,17.802,17.988C166.302,156.36,158.317,164.43,148.5,164.43z"/>
	<path d="M293.099,122.735L154.633,15.803c-3.613-2.789-8.652-2.789-12.266,0L3.902,122.735c-3.398,2.625-4.75,7.119-3.363,11.182
		c1.386,4.063,5.203,6.793,9.496,6.793h39.424v132.545c0,5.541,4.492,10.035,10.033,10.035h178.02
		c5.541,0,10.033-4.494,10.033-10.035V140.709h39.422c4.293,0,8.11-2.73,9.496-6.793
		C297.849,129.854,296.496,125.36,293.099,122.735z M159.117,243.549c-2.935,2.588-6.706,4.014-10.618,4.014
		c-3.91,0-7.681-1.426-10.615-4.012c-2.206-1.945-53.969-48.156-53.969-97.111c0-35.656,28.972-64.664,64.584-64.664
		c35.613,0,64.587,29.008,64.587,64.664C213.086,195.393,161.321,241.606,159.117,243.549z"/>
</g>
</svg>