<!DOCTYPE svg PUBLIC "-//W3C//DTD SVG 1.1//EN" "http://www.w3.org/Graphics/SVG/1.1/DTD/svg11.dtd">
<!-- Uploaded to: SVG Repo, www.svgrepo.com, Transformed by: SVG Repo Mixer Tools -->
<svg fill="#000000" height="64px" width="64px" version="1.1" id="Capa_1" xmlns="http://www.w3.org/2000/svg" xmlns:xlink="http://www.w3.org/1999/xlink" viewBox="-147 -147 784.00 784.00" xml:space="preserve" stroke="#000000" stroke-width="0.0049" transform="rotate(0)">
<g id="SVGRepo_bgCarrier" stroke-width="0"/>
<g id="SVGRepo_tracerCarrier" stroke-linecap="round" stroke-linejoin="round" stroke="#CCCCCC" stroke-width="6.860000000000001"/>
<g id="SVGRepo_iconCarrier"> <path d="M386.733,114.884h-51.497V90.235C335.236,40.48,294.756,0,245,0c-49.755,0-90.235,40.48-90.235,90.235v24.649h-51.497 L68.469,490h353.063L386.733,114.884z M175.616,90.235c0-38.26,31.123-69.384,69.384-69.384c38.262,0,69.385,31.124,69.385,69.384 v24.649H175.616V90.235z M122.266,135.735h32.498v61.239h-11.912v20.851h44.674v-20.851h-11.911v-61.239h138.769v61.239h-11.912 v20.851h44.676v-20.851h-11.912v-61.239h32.498l30.93,333.414H91.336L122.266,135.735z"/> </g>
</svg>